<?xml version="1.0" encoding="UTF-8"?>
<svg version="1.1" xmlns="http://www.w3.org/2000/svg" width="512" height="512">
<path d="M0 0 C0.88397461 -0.00128906 1.76794922 -0.00257812 2.67871094 -0.00390625 C9.46954161 0.10574386 15.21519092 1.24243753 21.3125 4.375 C21.3125 5.035 21.3125 5.695 21.3125 6.375 C22.034375 6.560625 22.75625 6.74625 23.5 6.9375 C30.37293766 10.4503348 33.0062771 18.43898259 35.3125 25.375 C39.36501529 38.43548098 38.6518406 51.72950193 38.5 65.25 C38.48492403 67.59504348 38.47124079 69.94009634 38.45898438 72.28515625 C38.42621447 77.98197855 38.37624692 83.67844446 38.3125 89.375 C39.23828857 89.43268555 40.16407715 89.49037109 41.11791992 89.54980469 C47.3684397 89.96299471 53.48359799 90.38372956 59.625 91.625 C60.2641333 91.75213379 60.9032666 91.87926758 61.56176758 92.01025391 C63.00053503 92.29730564 64.43857725 92.58800994 65.87597656 92.88183594 C68.63056254 93.43937739 71.38913212 93.97412702 74.1484375 94.5078125 C92.29895811 98.03920178 110.175277 101.99284191 127.875 107.375 C128.93323975 107.69509033 129.99147949 108.01518066 131.08178711 108.3449707 C138.3553607 110.608076 145.32227962 113.356596 152.3125 116.375 C153.65806699 116.93289195 155.00431315 117.48915185 156.3515625 118.04296875 C166.09607777 122.17218056 175.31209985 127.00906258 184.47021484 132.31054688 C186.08041435 133.24090334 187.70511397 134.14607216 189.33203125 135.046875 C189.98558594 135.48515625 190.63914062 135.9234375 191.3125 136.375 C191.3125 137.035 191.3125 137.695 191.3125 138.375 C192.034375 138.6225 192.75625 138.87 193.5 139.125 C196.58856582 140.49769592 198.82261418 142.09853296 201.3125 144.375 C201.3125 145.035 201.3125 145.695 201.3125 146.375 C201.90401855 146.64417236 202.49553711 146.91334473 203.10498047 147.19067383 C222.76273231 157.73698595 235.74522928 185.15300799 242.3125 205.375 C242.66183594 206.33664063 243.01117188 207.29828125 243.37109375 208.2890625 C246.92924248 219.95270358 245.56298485 232.17079306 241.3125 243.375 C240.97347656 244.35210937 240.63445312 245.32921875 240.28515625 246.3359375 C236.14424239 257.85241847 230.1557138 267.9938926 223.125 277.9375 C222.72128174 278.50911865 222.31756348 279.0807373 221.90161133 279.66967773 C219.31232299 283.23901144 216.46706103 286.30386538 213.3125 289.375 C212.42293699 290.44640738 211.54589837 291.5284653 210.6875 292.625 C204.77294581 299.62465328 196.93932492 305.34454101 189.3125 310.375 C188.6525 310.375 187.9925 310.375 187.3125 310.375 C187.3125 311.035 187.3125 311.695 187.3125 312.375 C171.54302448 321.47287288 155.42325099 329.14226257 138.3125 335.375 C137.68327637 335.60525879 137.05405273 335.83551758 136.40576172 336.07275391 C112.50943664 344.68605421 87.32796443 349.47856964 62.3125 353.5625 C61.29800781 353.72959473 60.28351563 353.89668945 59.23828125 354.06884766 C54.14538019 354.876888 49.08283791 355.51780144 43.94140625 355.92700195 C42.88123291 356.01230667 41.82105957 356.09761139 40.72875977 356.1855011 C39.53271118 356.27930305 39.53271118 356.27930305 38.3125 356.375 C38.32138245 357.08893417 38.33026489 357.80286835 38.3394165 358.53843689 C38.4203726 365.34662184 38.48086875 372.15473267 38.51974869 378.96327877 C38.54041103 382.46165335 38.56832356 385.9596224 38.61425781 389.45776367 C39.13743749 430.4023583 39.13743749 430.4023583 28.3125 442.375 C27.78785156 442.95636719 27.26320313 443.53773438 26.72265625 444.13671875 C19.61013604 451.04841486 11.22118157 451.62323258 1.75 451.6875 C0.95883789 451.69313965 0.16767578 451.6987793 -0.64746094 451.70458984 C-10.97709075 451.57830552 -18.1129789 449.62947092 -25.6875 442.375 C-30.74428631 435.98748046 -33.08688193 429.04619561 -34.359375 421.12890625 C-34.48592468 420.35043839 -34.61247437 419.57197052 -34.74285889 418.76991272 C-35.94046113 410.7501582 -36.07416152 402.81002791 -35.96875 394.71557617 C-35.93746194 392.30957298 -35.92773482 389.90423434 -35.921875 387.49804688 C-35.86952321 377.09709546 -35.40104132 366.75038868 -34.6875 356.375 C-35.95980469 356.20484375 -37.23210937 356.0346875 -38.54296875 355.859375 C-51.35015104 354.11059324 -64.02234645 351.95426058 -76.6875 349.375 C-77.59725586 349.19211426 -78.50701172 349.00922852 -79.44433594 348.82080078 C-122.9747186 340.00077037 -166.79147964 326.60091471 -199.6875 295.375 C-200.60789063 294.50746094 -201.52828125 293.63992188 -202.4765625 292.74609375 C-220.44903624 275.3429959 -236.74100323 248.21046031 -237.85546875 222.5 C-237.79642925 218.40982103 -237.04293743 214.56976897 -236 210.625 C-235.81920898 209.92890625 -235.63841797 209.2328125 -235.45214844 208.515625 C-233.74912553 202.20254518 -231.46975008 196.29468101 -228.6875 190.375 C-228.40390625 189.75625 -228.1203125 189.1375 -227.828125 188.5 C-223.39966518 178.89249394 -218.44818665 170.56536591 -211.6875 162.375 C-211.00945312 161.54484375 -210.33140625 160.7146875 -209.6328125 159.859375 C-206.25689946 155.85310476 -206.25689946 155.85310476 -204.6875 154.375 C-204.0275 154.375 -203.3675 154.375 -202.6875 154.375 C-202.0275 153.055 -201.3675 151.735 -200.6875 150.375 C-200.0275 150.375 -199.3675 150.375 -198.6875 150.375 C-198.2994519 149.46959473 -198.2994519 149.46959473 -197.90356445 148.54589844 C-196.57366639 146.1717861 -195.44638782 145.18308695 -193.23046875 143.640625 C-192.53719482 143.15311768 -191.8439209 142.66561035 -191.12963867 142.16333008 C-190.38560791 141.65568115 -189.64157715 141.14803223 -188.875 140.625 C-187.71931519 139.82775513 -187.71931519 139.82775513 -186.5402832 139.0144043 C-184.26444368 137.45506338 -181.97808842 135.91256781 -179.6875 134.375 C-178.82125 133.78549561 -178.82125 133.78549561 -177.9375 133.18408203 C-168.1556679 126.57828854 -157.52520014 121.95347089 -146.6875 117.375 C-145.9543457 117.06175781 -145.22119141 116.74851562 -144.46582031 116.42578125 C-117.60871668 105.06268336 -88.9021968 98.78952089 -60.34472656 93.42919922 C-52.70094028 92.01018042 -52.70094028 92.01018042 -45.14453125 90.19921875 C-41.82586423 89.40798853 -39.07667005 89.31228713 -35.6875 89.375 C-35.69638245 88.8055365 -35.70526489 88.236073 -35.7144165 87.64935303 C-35.80431672 81.6125311 -35.86381127 75.57590508 -35.90722656 69.53857422 C-35.92709199 67.29858656 -35.95419372 65.05864896 -35.98925781 62.81884766 C-36.57207597 24.57569177 -36.57207597 24.57569177 -26.6875 11.375 C-25.759375 9.9828125 -25.759375 9.9828125 -24.8125 8.5625 C-18.02598314 1.5763797 -9.3989862 -0.01409672 0 0 Z M38.3125 134.375 C38.3125 192.785 38.3125 251.195 38.3125 311.375 C56.49231565 308.93087782 56.49231565 308.93087782 74.5625 305.9375 C75.75085449 305.7206958 76.93920898 305.5038916 78.16357422 305.28051758 C81.54862491 304.65579385 84.93111206 304.01922452 88.3125 303.375 C89.16295898 303.21418945 90.01341797 303.05337891 90.88964844 302.88769531 C100.6675158 300.9988365 110.16077595 298.3307665 119.6875 295.4375 C120.75758301 295.11354248 121.82766602 294.78958496 122.93017578 294.45581055 C149.65641413 286.12944804 178.19772473 271.98665645 192.5625 246.6875 C198.41285176 233.84711756 198.9861968 218.10479022 194.390625 204.74609375 C190.05604633 195.21316167 183.66535945 186.68604936 175.3125 180.375 C174.6525 180.375 173.9925 180.375 173.3125 180.375 C173.3125 179.715 173.3125 179.055 173.3125 178.375 C171.42674548 176.88160409 169.55496914 175.52561271 167.5625 174.1875 C166.97629883 173.78893799 166.39009766 173.39037598 165.78613281 172.97973633 C157.37226013 167.32263897 148.7532324 162.12268468 139.3125 158.375 C138.15234375 157.91351563 136.9921875 157.45203125 135.796875 156.9765625 C120.98706198 151.20503672 105.76489944 147.03716822 90.3125 143.375 C88.88671631 143.03251221 88.88671631 143.03251221 87.43212891 142.68310547 C79.39099618 140.78282869 71.32216686 139.19339105 63.1875 137.75 C62.00285156 137.5334375 60.81820313 137.316875 59.59765625 137.09375 C58.42847656 136.88492188 57.25929688 136.67609375 56.0546875 136.4609375 C55.0219873 136.2757959 53.98928711 136.0906543 52.92529297 135.89990234 C48.07879778 135.19575552 43.18976824 134.81838802 38.3125 134.375 Z M-111.6875 151.375 C-112.43016113 151.62862305 -113.17282227 151.88224609 -113.93798828 152.14355469 C-134.91062495 159.35114939 -153.72601825 168.91424953 -170.6875 183.375 C-171.53183594 184.01566406 -172.37617188 184.65632813 -173.24609375 185.31640625 C-183.1688366 193.68326302 -188.29927298 205.74384795 -189.6875 218.375 C-190.91601445 234.43189939 -186.12823157 248.03610482 -176.23828125 260.609375 C-167.10351044 271.00966821 -153.65173667 278.90824062 -141.0625 284.375 C-140.27979736 284.71821289 -139.49709473 285.06142578 -138.69067383 285.41503906 C-123.31505937 292.07190829 -107.33945688 296.90347147 -91.0625 300.8125 C-89.81992432 301.1118042 -88.57734863 301.4111084 -87.29711914 301.71948242 C-70.56150202 305.67575058 -53.64419419 308.55709055 -36.6875 311.375 C-36.24936408 304.42781027 -35.82371967 297.47992663 -35.40576172 290.53149414 C-35.26296203 288.18009113 -35.11755871 285.82884443 -34.96923828 283.4777832 C-34.18478327 271.01455411 -33.5517924 258.58051949 -33.53125 246.08984375 C-33.52855103 245.12977921 -33.52585205 244.16971466 -33.52307129 243.18055725 C-33.5495174 237.82852652 -33.79813914 232.53229484 -34.19335938 227.19458008 C-34.72311788 219.71227496 -34.8054055 212.28690297 -34.76266479 204.79116058 C-34.74960337 202.47658883 -34.74331259 200.16207604 -34.73852539 197.84747314 C-34.72724786 192.9399551 -34.70799307 188.03248708 -34.6875 183.125 C-34.66372587 177.41389543 -34.64341123 171.70281913 -34.63156128 165.99167633 C-34.62517127 163.73242792 -34.61267347 161.47326992 -34.59985352 159.21405029 C-34.57292028 151.54672469 -34.78740794 143.99508601 -35.6875 136.375 C-60.64115746 135.4468239 -88.24803545 143.20556375 -111.6875 151.375 Z " fill="#EDB83A" transform="translate(252.6875,35.625)"/>
<path d="M0 0 C7.71113109 7.01127596 11.0447714 15.58938496 11.54296875 25.73046875 C11.78192624 38.3574858 10.609994 46.31581375 2.3671875 56.15234375 C0.43509461 58.10634246 -1.36460559 59.56987381 -3.6328125 61.15234375 C-4.2928125 61.15234375 -4.9528125 61.15234375 -5.6328125 61.15234375 C-5.6328125 61.81234375 -5.6328125 62.47234375 -5.6328125 63.15234375 C-18.442867 69.87826415 -32.27076214 72.18536688 -46.45703125 68.3984375 C-56.38025542 64.76650706 -62.66565901 59.1965453 -67.3203125 49.71484375 C-71.17404395 39.25471553 -71.05172368 26.42390305 -66.78515625 16.1015625 C-64.6549676 11.52208811 -62.11236063 7.81502599 -58.6328125 4.15234375 C-57.9728125 4.15234375 -57.3128125 4.15234375 -56.6328125 4.15234375 C-56.6328125 3.49234375 -56.6328125 2.83234375 -56.6328125 2.15234375 C-39.2094456 -7.5482335 -17.50776013 -12.28660318 0 0 Z " fill="#EDB83A" transform="translate(397.6328125,227.84765625)"/>
<path d="M0 0 C8.06160869 6.48942774 12.09230018 13.93185279 13.59765625 24.08984375 C14.75375157 37.97882457 12.33686564 48.56871003 3.8828125 59.515625 C-2.76466015 66.34774967 -12.14125937 68.22228414 -21.34375 68.6015625 C-34.06180142 68.31191744 -44.86017361 65.1659692 -55.1171875 57.515625 C-55.6121875 56.030625 -55.6121875 56.030625 -56.1171875 54.515625 C-56.73207031 54.24363281 -57.34695312 53.97164063 -57.98046875 53.69140625 C-61.05374304 52.00026263 -61.80457152 49.83061616 -63.3046875 46.703125 C-63.81386719 45.66542969 -64.32304688 44.62773437 -64.84765625 43.55859375 C-68.60079711 34.56260381 -67.62701444 25.06253527 -64.19921875 16.12109375 C-63.23131931 13.88491229 -62.19819582 11.69900543 -61.1171875 9.515625 C-60.7046875 8.62875 -60.2921875 7.741875 -59.8671875 6.828125 C-47.15547025 -9.96950137 -16.54066876 -11.11640087 0 0 Z " fill="#EDB83A" transform="translate(172.1171875,229.484375)"/>
<path d="M0 0 C0 3.23345185 -0.66887922 4.87345328 -1.9375 7.8125 C-3.48038253 11.58520217 -4.65174418 14.90799416 -5 19 C-5.09474609 19.92619141 -5.09474609 19.92619141 -5.19140625 20.87109375 C-5.79895531 31.55219824 -1.71799136 42.14180027 4 51 C-0.09551485 49.63482838 -0.82125052 47.67663975 -3 44 C-8.20457933 33.39807914 -8.79709875 20.20144132 -5 9 C-1.80757098 1.80757098 -1.80757098 1.80757098 0 0 Z " fill="#E5BD61" transform="translate(335,237)"/>
<path d="M0 0 C-1.34634457 4.4062186 -3.19374374 6.43077702 -7 9 C-7.66 9 -8.32 9 -9 9 C-9.103125 9.680625 -9.20625 10.36125 -9.3125 11.0625 C-10.47147947 16.01450317 -12.71564551 20.48073593 -15 25 C-14.55733915 15.70412223 -11.28342503 8.91176753 -5 2 C-2 0 -2 0 0 0 Z " fill="#E7BD5A" transform="translate(235,40)"/>
<path d="M0 0 C0.66 0.33 1.32 0.66 2 1 C1.01 1.33 0.02 1.66 -1 2 C-1.433125 2.8971875 -1.433125 2.8971875 -1.875 3.8125 C-3 6 -3 6 -5.3125 7.625 C-9.1986299 11.05925433 -10.90197512 15.32185091 -13 20 C-14 17 -14 17 -13.3984375 15.1328125 C-10.07506228 8.61290844 -5.79036943 4.46685642 0 0 Z " fill="#E6BC54" transform="translate(122,228)"/>
<path d="M0 0 C0 4.34583931 -2.22005146 6.05802555 -5.04296875 9.19140625 C-7.49350148 11.45607023 -9.74043549 12.36398741 -13 13 C-8.66666667 8.66666667 -4.33333333 4.33333333 0 0 Z " fill="#E7BD55" transform="translate(437,293)"/>
<path d="M0 0 C0.33 0.66 0.66 1.32 1 2 C-0.3125 4.625 -0.3125 4.625 -2 7 C-2.66 7 -3.32 7 -4 7 C-4.66 8.65 -5.32 10.3 -6 12 C-6.33 11.34 -6.66 10.68 -7 10 C-6.02223933 8.51990357 -5.0427506 7.04094856 -4.0625 5.5625 C-3.51722656 4.73878906 -2.97195312 3.91507813 -2.41015625 3.06640625 C-1 1 -1 1 0 0 Z " fill="#E5BF54" transform="translate(41,198)"/>
</svg>
